<svg width="400" height="429" viewBox="0 0 400 429" fill="none" xmlns="http://www.w3.org/2000/svg">
<circle cx="200" cy="200" r="192.5" transform="translate(0 25)" stroke="black" stroke-width="15"/>
<path d="M69.71 120.437C66.8711 123.381 64.2425 125.431 61.8242 126.588C59.4059 127.744 56.9876 128.323 54.5693 128.323C52.2562 128.323 49.943 127.85 47.6299 126.903C45.4219 125.852 43.4242 124.485 41.6367 122.803C37.5361 119.123 35.4858 115.548 35.4858 112.078C35.4858 108.608 35.959 105.77 36.9053 103.562C37.9567 101.248 39.3236 99.1455 41.0059 97.2529C44.791 93.0472 49.207 90.9443 54.2539 90.9443C58.8802 90.9443 62.7705 92.3112 65.9248 95.0449C71.3923 99.7764 74.126 104.35 74.126 108.766C74.126 113.498 72.654 117.388 69.71 120.437ZM22.0801 305.594L42.8984 298.812V194.563L20.9761 185.258L19.2412 183.365L20.9761 174.849L65.4517 156.711L68.1328 158.131V298.812L93.3672 304.175L93.998 306.383L92.2632 319H21.6069L20.5029 317.581L22.0801 305.594Z" transform="translate(146 10)" fill="black"/>
</svg>
