<svg xmlns="http://www.w3.org/2000/svg" viewBox="0 0 200 200">
  <defs>
    <style>
      .a {
        
      }

      .a:hover {
        fill: #FFF;
      }

      .b {
        fill: #FFF;
      }

      .b:hover {
        fill: #FFF;
      }
    </style>
  </defs>
  <title>UI-elements-forSVG</title>
  <g>
    <path class="a" d="M100,10a90,90,0,1,0,90,90,90,90,0,0,0-90-90"/>
    <path class="b" d="M159.42,83.72A2.51,2.51,0,0,0,157,82H115.28l-12.9-39.71a2.5,2.5,0,0,0-4.76,0L84.72,82H43a2.5,2.5,0,0,0-1.47,4.53l33.78,24.54-12.9,39.71a2.5,2.5,0,0,0,3.85,2.8L100,129l33.78,24.54a2.5,2.5,0,0,0,3.85-2.8l-12.9-39.71,33.78-24.54a2.51,2.51,0,0,0,.91-2.8"/>
  </g>
</svg>
