<svg xmlns="http://www.w3.org/2000/svg" viewBox="0 0 950 220">
  <defs>
    <style>
      .a {
        fill: #fff;
      }

      .b {
        fill: none;
        stroke-linecap: round;
        stroke-linejoin: round;
        stroke-width: 18px;
      }

      .b, .c {
        stroke: #fff;
      }

      .c {
        fill: #669dbc;
        stroke-miterlimit: 10;
        stroke-width: 6px;
      }
    </style>
  </defs>
  <title>UI-elements-forSVG</title>
  <g>
    <path class="a" d="M76,62.23H42.5V46.62h87.22L129,62.23H94.79v99.62H76Z"/>
    <path class="a" d="M184.15,46.62c20,0,39.35,6.56,39.35,33.51a31.47,31.47,0,0,1-24.29,31.38l39.54,50.17H215L180.42,114H167.84l.35,47.86H149V46.62ZM184,99.28c13.29,0,20.74-5.68,20.74-18.44,0-14.36-8.86-19.15-20.74-19.15H167.84V99.28Z"/>
    <path class="a" d="M293,46.62h17.9l42.37,115.23h-21.1l-11.7-31.73H278.11l-12.59,31.73H244.6Zm22.87,69-16.14-46.1-17.19,46.1Z"/>
    <path class="a" d="M370.65,46.62H390l57.44,83.68V46.62h18.08V161.85H446.17L388.55,78.36v83.49h-17.9Z"/>
    <path class="a" d="M522.93,102.82,485.7,46.62h24.11L536.22,86,563,46.62h19.68l-36,54.78,39.54,60.45H563.17L534.1,118.07l-29.25,43.78H483.4Z"/>
    <path class="a" d="M604.66,46.62h67.89l-.88,14.9H623.45V92.18h41.3l-.88,15.07H623.45v39.54h51v15.06H604.66Z"/>
    <path class="a" d="M697.55,46.62h19.32l57.44,83.68V46.62h18.08V161.85H773.07L715.46,78.36v83.49H697.55Z"/>
    <path class="a" d="M819.87,46.62h39.89c30.14,0,53.18,15.78,53.18,58.15,0,42.55-24.64,57.08-53,57.08H819.87Zm38.65,99.81c19.32,0,34.57-12.41,34.57-41.66,0-30.14-15.25-42.9-34.75-42.9H838.67v84.56Z"/>
  </g>
  <g>
    <polyline class="b" points="43.4 181.53 482.56 179.69 583.79 30.02 899.45 29.58"/>
    <circle class="c" cx="582.9" cy="29.52" r="12.5"/>
    <circle class="c" cx="899.9" cy="29.52" r="12.5"/>
    <circle class="c" cx="482.9" cy="179.27" r="12.5"/>
    <circle class="c" cx="41.4" cy="179.27" r="12.5"/>
  </g>
</svg>
