<svg xmlns="http://www.w3.org/2000/svg" viewBox="0 0 100 100">
  <defs>
    <style>
      .a {
        fill: #fff;
      }

      .b {
        fill: none;
        stroke: #669dbc;
        stroke-linecap: round;
        stroke-linejoin: round;
        stroke-width: 1.78px;
      }

      .c {
        font-size: 16.36px;
        fill: #1a81b8;
        font-family: OpenSans-Semibold, Open Sans;
        font-weight: 700;
      }

      .d {
        fill: #669dbc;
      }
    </style>
  </defs>
  <title>UI-elements-forSVG</title>
  <g>
    <g>
      <rect class="a" x="9.18" y="9.53" width="81.47" height="81.47" rx="3.56" ry="3.56"/>
      <rect class="b" x="9.18" y="9.53" width="81.47" height="81.47" rx="3.56" ry="3.56"/>
    </g>
    <text class="c" transform="translate(18.27 32.75)">SERVICE</text>
  </g>
  <path class="d" d="M59.1,59.73,57,59.4l-.55-.08a1.61,1.61,0,0,0-1.49.6c-2.33,2.75-12.34,13-14.61,15.84A3.79,3.79,0,0,1,34,74.83a3.61,3.61,0,0,1,1-4.37c2.73-2.22,13-12.11,15.7-14.33A2,2,0,0,0,51.47,54c-.12-.62-.22-1.26-.29-1.89A5.33,5.33,0,0,1,52,48.57a7.77,7.77,0,0,1,6.39-3.78.88.88,0,0,1,1,.56.92.92,0,0,1-.28,1.11l-3,3c-.16.15,3.72,5.09,4.89,5.49a.38.38,0,0,0,.46-.12q1.51-1.53,3.05-3.05a.95.95,0,0,1,1.69.73,7.74,7.74,0,0,1-4.59,6.77A5.7,5.7,0,0,1,59.1,59.73Z"/>
</svg>
