<svg xmlns="http://www.w3.org/2000/svg" viewBox="0 0 200 200">
  <defs>
    <style>
      .a {
        fill: #fff;
      }
    </style>
  </defs>
  <title>UI-elements-forSVG</title>
  <path class="a" d="M176.28,148.62s-16.95-24.32-17.61-30.09c0,0,0-19.91-1-44.34-1.4-32-26-52.79-58.06-52.79S41.51,42.12,41.51,74.19c0,24.43.63,44.31.63,44.31-.46,5.79-18.7,30.12-18.7,30.12-1.84,5.51,1.41,10,7.22,10h50c0,.19,0,.37,0,.56a19.39,19.39,0,1,0,38.78,0c0-.19,0-.37,0-.56h51.75C176.92,158.64,178.11,154.13,176.28,148.62Z"/>
</svg>
