<svg xmlns="http://www.w3.org/2000/svg" xmlns:xlink="http://www.w3.org/1999/xlink" viewBox="0 0 14 20">
  <defs>
    <style>
      .a, .f {
        fill: none;
      }

      .b {
        clip-path: url(#a);
      }

      .c {
        fill: #669fba;
      }

      .d {
        fill: #196eaa;
      }

      .e {
        fill: #fff;
      }

      .f {
        stroke: #4bb8f6;
        stroke-miterlimit: 10;
        stroke-width: 0.6px;
      }
    </style>
    <clipPath id="a">
      <rect class="a" x="0.46" y="0.5" width="13.07" height="19"/>
    </clipPath>
  </defs>
  <title>UI-elements-forSVG</title>
  <g class="b">
    <g class="b">
      <path class="c" d="M6,9.36,2.31,3.75h2.4L7.35,7.68,10,3.75h2L8.39,9.22l3.95,6H10l-2.9-4.37L4.22,15.25H2.08Z"/>
      <path class="d" d="M2,17.93a1,1,0,0,1-.51-.15.91.91,0,0,1-.24-1.25L11.33,1.59a.91.91,0,0,1,1.25-.24.9.9,0,0,1,.24,1.25L2.72,17.54A.91.91,0,0,1,2,17.93Z"/>
      <path class="e" d="M13.24,2.05A1.25,1.25,0,1,1,12,.8a1.24,1.24,0,0,1,1.25,1.25"/>
      <circle class="f" cx="11.99" cy="2.05" r="1.25"/>
      <path class="e" d="M3.26,17A1.25,1.25,0,1,1,2,15.74,1.25,1.25,0,0,1,3.26,17"/>
      <circle class="f" cx="2.01" cy="16.99" r="1.25"/>
    </g>
  </g>
</svg>
