<svg xmlns="http://www.w3.org/2000/svg" viewBox="0 0 100 100">
  <defs>
    <style>
      .a {
        fill: #196ea8;
      }

      .b {
        fill: #fff;
      }
    </style>
  </defs>
  <title>UI-elements-forSVG</title>
  <circle class="a" cx="50" cy="50" r="40"/>
  <path class="b" d="M45.26,41.54q0,6.63-2.57,10c-1.71,2.22-4.21,3.33-7.52,3.33a8.68,8.68,0,0,1-7.35-3.42q-2.59-3.4-2.59-9.87,0-13.17,9.94-13.17a8.86,8.86,0,0,1,7.48,3.41Q45.26,35.2,45.26,41.54Zm-12.77.06a17.23,17.23,0,0,0,.65,5.46c.43,1.2,1.13,1.8,2.09,1.8,1.84,0,2.77-2.42,2.77-7.26s-.93-7.21-2.77-7.21c-1,0-1.66.59-2.09,1.77A17,17,0,0,0,32.49,41.6ZM65.09,29,41.71,71.11H34.8L58.17,29Zm9.68,29.4q0,6.6-2.56,9.93t-7.52,3.33a8.68,8.68,0,0,1-7.35-3.41q-2.6-3.42-2.6-9.85,0-13.17,9.95-13.17a8.82,8.82,0,0,1,7.47,3.42C73.9,50.89,74.77,54.15,74.77,58.37ZM62,58.43a17.23,17.23,0,0,0,.65,5.46c.44,1.2,1.13,1.8,2.09,1.8q2.78,0,2.77-7.26c0-4.8-.92-7.21-2.77-7.21-1,0-1.65.6-2.09,1.78A16.93,16.93,0,0,0,62,58.43Z"/>
</svg>
