<svg xmlns="http://www.w3.org/2000/svg" viewBox="0 0 200 200">
  <defs>
    <style>
      .a {
        fill: #196eaa;
      }

      .b {
        fill: #fff;
      }
    </style>
  </defs>
  <title>UI-elements-forSVG</title>
  <g>
    <path class="a" d="M100,12a88,88,0,1,0,88,88A88,88,0,0,0,100,12Zm43.58,81.39c-2,4.53-39.47,45.54-43.66,50.61,0,0-40.38-46.24-42.83-50.65A29.71,29.71,0,0,1,53.4,78.6a21.43,21.43,0,0,1,6.87-15.91A22.59,22.59,0,0,1,76.58,56q13.08,0,23.5,18.44,11.1-18,24.26-18.06A21.11,21.11,0,0,1,140.26,63q6.33,6.62,6.34,16.76A33.4,33.4,0,0,1,143.58,93.39Z"/>
    <path class="b" d="M124.34,56.38q-13.17,0-24.26,18.06Q89.66,56,76.58,56a22.59,22.59,0,0,0-16.31,6.69A21.43,21.43,0,0,0,53.4,78.6a29.71,29.71,0,0,0,3.69,14.75C59.54,97.76,99.92,144,99.92,144c4.19-5.07,41.64-46.08,43.66-50.61a33.4,33.4,0,0,0,3-13.64q0-10.16-6.34-16.76A21.11,21.11,0,0,0,124.34,56.38Z"/>
  </g>
</svg>
