<svg xmlns="http://www.w3.org/2000/svg" viewBox="0 0 200 200">
  <defs>
    <style>
      .a, .b {
        fill: #4cb048;
      }

      .b {
        stroke: #4cb048;
        stroke-miterlimit: 10;
      }

      .c {
        fill: #fff;
      }
    </style>
  </defs>
  <title>UI-elements-forSVG</title>
  <g>
    <path class="a" d="M144.77,102.88A75.94,75.94,0,0,0,144,92.11H55.23v10.77c0,1.08,0,2.16.07,3.24,0,.5-.07,1-.07,1.54v39.28c0,8.59,6.55,15.55,14.62,15.55h60.3c8.07,0,14.62-7,14.62-15.55V107.66c0-.52,0-1-.07-1.54C144.74,105,144.77,104,144.77,102.88Z"/>
    <path class="b" d="M100,37.51c-21.88,0-40.09,20.33-44,47.19H72.6A45.63,45.63,0,0,1,81,65.52c5.29-6.85,12-10.62,19-10.62s13.74,3.77,19,10.62A45.49,45.49,0,0,1,127.4,84.7H144C140.1,57.84,121.89,37.51,100,37.51Z"/>
  </g>
  <circle class="c" cx="100" cy="116.14" r="10.35"/>
  <path class="c" d="M107.18,143.88H92.82a2.79,2.79,0,0,1-2.7-3.48l6.38-21.74a2.79,2.79,0,0,1,2.7-2.1h1.6a2.79,2.79,0,0,1,2.7,2.1l6.38,21.74A2.79,2.79,0,0,1,107.18,143.88Z"/>
</svg>
