<svg xmlns="http://www.w3.org/2000/svg" viewBox="0 0 200 200">
  <defs>
    <style>
      .a {
        fill: #196eaa;
      }
    </style>
  </defs>
  <title>UI-elements-forSVG</title>
  <path class="a" d="M166.85,110a5.66,5.66,0,0,0,5.65-5.65v-8.7A5.66,5.66,0,0,0,166.85,90h-4.53a8,8,0,0,1-7.25-5.42L149.88,72A8,8,0,0,1,151.14,63l3.21-3.21a5.68,5.68,0,0,0,0-8l-6.16-6.16a5.68,5.68,0,0,0-8,0L137,48.86a8,8,0,0,1-8.94,1.26l-12.63-5.19A8,8,0,0,1,110,37.68V33.15a5.66,5.66,0,0,0-5.65-5.65h-8.7A5.66,5.66,0,0,0,90,33.15v4.53a8,8,0,0,1-5.42,7.25L72,50.12A8,8,0,0,1,63,48.86L59.8,45.65a5.68,5.68,0,0,0-8,0l-6.16,6.16a5.68,5.68,0,0,0,0,8L48.86,63A8,8,0,0,1,50.12,72L44.93,84.58A8,8,0,0,1,37.68,90H33.15a5.66,5.66,0,0,0-5.65,5.65v8.7A5.66,5.66,0,0,0,33.15,110h4.53a8,8,0,0,1,7.25,5.42l5.19,12.63A8,8,0,0,1,48.86,137l-3.21,3.21a5.68,5.68,0,0,0,0,8l6.16,6.16a5.68,5.68,0,0,0,8,0L63,151.14A8,8,0,0,1,72,149.88l12.63,5.19A8,8,0,0,1,90,162.32v4.53a5.66,5.66,0,0,0,5.65,5.65h8.7a5.66,5.66,0,0,0,5.65-5.65v-4.53a8,8,0,0,1,5.42-7.25l12.63-5.19a8,8,0,0,1,8.94,1.26l3.21,3.21a5.68,5.68,0,0,0,8,0l6.16-6.16a5.68,5.68,0,0,0,0-8L151.14,137a8,8,0,0,1-1.26-8.94l5.19-12.63a8,8,0,0,1,7.25-5.42Zm-40,5.86a31.54,31.54,0,0,1-11,11,31,31,0,0,1-8.11,3.37,30.24,30.24,0,0,1-15.5,0,31,31,0,0,1-8.11-3.37,31.54,31.54,0,0,1-11-11,31.08,31.08,0,0,1,0-31.72,31.37,31.37,0,0,1,11-11,31.14,31.14,0,0,1,42.67,42.67Z"/>
</svg>
