<svg xmlns="http://www.w3.org/2000/svg" viewBox="0 0 200 200">
  <defs>
    <style>
      .a {
        fill: #484848;
      }
    </style>
  </defs>
  <title>UI-elements-forSVG</title>
  <g>
    <path class="a" d="M145.54,94l-10.26-1.61c-.92-.15-1.83-.29-2.75-.39a7.87,7.87,0,0,0-7.34,3c-11.57,13.64-61.09,64.56-72.36,78.44-8.67,10.69-25.75,7.89-31.39-4.63-3.36-7.49-1.85-16.15,4.87-21.62,13.49-11,64.21-60,77.73-70.94,3.71-3,4.61-6.27,3.72-10.61-.63-3.09-1.09-6.23-1.45-9.37a26.4,26.4,0,0,1,3.91-17.49c7.34-11.59,17.95-17.8,31.63-18.71,2.58-.17,4.15.81,5,2.77s.41,3.71-1.41,5.53q-7.53,7.56-15.11,15.08c-.76.75,18.44,25.19,24.24,27.19a1.89,1.89,0,0,0,2.27-.6q7.5-7.59,15.08-15.11c1.87-1.86,3.68-2.31,5.66-1.42a4.62,4.62,0,0,1,2.72,5c-1.36,15.38-8.57,26.86-22.75,33.53C154.32,93.53,150.82,94,145.54,94Z"/>
    <path class="a" d="M38.88,180.5A19.62,19.62,0,0,1,21,169c-3.63-8.06-1.66-16.78,5-22.21s22.82-20.51,38.43-35.08c16-14.91,32.47-30.32,39.3-35.86,3.38-2.74,4.44-5.76,3.55-10.12-.59-2.89-1.07-6-1.46-9.42a26.82,26.82,0,0,1,4-17.81c7.38-11.65,18.15-18,32-18.94,2.7-.18,4.53.86,5.47,3.07s.44,4.12-1.52,6.08l-2.14,2.15c-4.18,4.2-8.51,8.54-12.8,12.77,1.09,2.83,18.56,24.69,23.88,26.53a1.41,1.41,0,0,0,1.75-.48q6.38-6.44,12.81-12.83l2.28-2.28c2-2,4-2.5,6.21-1.53a5.13,5.13,0,0,1,3,5.54c-1.42,16-9.17,27.41-23,33.93-3.09,1.45-6.4,2-12.21,2h-.08l-1.61-.26-8.65-1.36-.22,0c-.82-.13-1.67-.27-2.5-.35a7.39,7.39,0,0,0-6.91,2.78c-5.3,6.25-18.46,20.22-32.4,35-16.64,17.65-33.85,35.91-39.95,43.43A18.35,18.35,0,0,1,38.88,180.5Zm103.54-160-.53,0c-13.54.9-24,7.11-31.25,18.48a25.82,25.82,0,0,0-3.83,17.16c.38,3.42.85,6.47,1.44,9.33,1,4.77-.19,8.09-3.9,11.1C97.55,82.1,81.05,97.5,65.1,112.4,49.48,127,33.33,142.07,26.62,147.53c-6.3,5.13-8.15,13.38-4.72,21a18.48,18.48,0,0,0,14.6,10.79,17.45,17.45,0,0,0,15.94-6.26c6.13-7.55,23.35-25.82,40-43.49,13.93-14.78,27.09-28.74,32.37-35a8.34,8.34,0,0,1,7.77-3.13c.86.09,1.72.23,2.55.36l.22,0L144,93.24l1.57.25c5.63,0,8.82-.54,11.75-1.92,13.52-6.36,21.08-17.51,22.46-33.12a4.15,4.15,0,0,0-2.43-4.54c-1.79-.8-3.37-.4-5.1,1.33L170,57.51q-6.41,6.41-12.8,12.83a2.34,2.34,0,0,1-2.78.72c-5.67-2-24-24.69-24.58-27.4a.61.61,0,0,1,.15-.61c4.34-4.29,8.72-8.68,13-12.93L145.07,28c1.68-1.68,2.07-3.17,1.3-5A3.86,3.86,0,0,0,142.42,20.5Z"/>
  </g>
</svg>
