<svg xmlns="http://www.w3.org/2000/svg" viewBox="0 0 200 200">
  <defs>
    <style>
      .a {
        fill: #ededed;
      }

      .b {
        fill: #4cb048;
      }
    </style>
  </defs>
  <title>UI-elements-forSVG</title>
  <g>
    <path class="a" d="M144.77,102.88c0-3.68.23-8.88,0-10.77H55.23v10.77c0,1.08,0,2.16.07,3.24,0,.5-.07,1-.07,1.54v39.28c0,8.59,6.55,15.55,14.62,15.55h60.3c8.07,0,14.62-7,14.62-15.55V107.66c0-.52,0-1-.07-1.54C144.74,105,144.77,104,144.77,102.88Z"/>
    <path class="a" d="M114.32,27.46c-21.09-5.86-44.08,8.86-55,33.69l13.33,3.71,4.66.74C80.6,59,83.11,53.38,88.49,49.36c6.93-5.19,14.45-7,21.18-5.15s12.22,7.31,15.48,15.33c2.54,6.22,2.52,11.34,1.94,18.72L130.74,81l13.34,3.7C147.51,57.78,135.41,33.32,114.32,27.46Z"/>
  </g>
  <circle class="b" cx="100" cy="116.14" r="10.35"/>
  <path class="b" d="M107.18,143.88H92.82a2.79,2.79,0,0,1-2.7-3.48l6.38-21.74a2.79,2.79,0,0,1,2.7-2.1h1.6a2.79,2.79,0,0,1,2.7,2.1l6.38,21.74A2.79,2.79,0,0,1,107.18,143.88Z"/>
</svg>
