<svg xmlns="http://www.w3.org/2000/svg" viewBox="0 0 200 200">
  <defs>
    <style>
      .a {
        fill: #292929;
      }

      .b {
        fill: #fff;
      }
    </style>
  </defs>
  <title>UI-elements-forSVG</title>
  <circle class="a" cx="100" cy="100" r="70"/>
  <path class="b" d="M91.7,85.2q0,11.6-4.49,17.42t-13.16,5.83q-8.33,0-12.86-6T56.65,85.2q0-23.06,17.4-23.06,8.52,0,13.09,6T91.7,85.2Zm-22.34.1a30.23,30.23,0,0,0,1.13,9.55Q71.63,98,74.15,98,79,98,79,85.3T74.15,72.69q-2.52,0-3.66,3.1T69.36,85.3Zm57.05-22.1L85.5,137H73.39L114.3,63.2Zm16.94,51.45q0,11.55-4.49,17.38t-13.16,5.83q-8.33,0-12.86-6t-4.54-17.23q0-23,17.4-23.05,8.52,0,13.09,6T143.35,114.65Zm-22.34.1a30.3,30.3,0,0,0,1.13,9.56q1.14,3.15,3.66,3.15,4.85,0,4.84-12.71t-4.84-12.61q-2.52,0-3.66,3.11T121,114.75Z"/>
</svg>
