<svg xmlns="http://www.w3.org/2000/svg" viewBox="0 0 200 200">
  <defs>
    <style>
      .a {
        fill: none;
        stroke: #196eaa;
        stroke-miterlimit: 10;
        stroke-width: 20px;
      }

      .b {
        fill: #e6721e;
      }

      .c {
        fill: #ededed;
      }

      .d {
        fill: #ed2024;
      }

      .e {
        fill: #fff;
      }
    </style>
  </defs>
  <title>UI-elements-forSVG</title>
  <line class="a" x1="60" y1="139.5" x2="142" y2="57.5"/>
  <g>
    <path class="b" d="M11,147.47a39.75,39.75,0,1,0,39.75-39.75A39.75,39.75,0,0,0,11,147.47Z"/>
    <path class="c" d="M29,147.47a21.75,21.75,0,1,0,21.75-21.75A21.75,21.75,0,0,0,29,147.47Z"/>
  </g>
  <g>
    <path class="b" d="M110,48.47A39.75,39.75,0,1,0,149.75,8.72,39.75,39.75,0,0,0,110,48.47Z"/>
    <path class="c" d="M128,48.47a21.75,21.75,0,1,0,21.75-21.75A21.75,21.75,0,0,0,128,48.47Z"/>
  </g>
  <g>
    <circle class="d" cx="145.75" cy="54.25" r="48.75"/>
    <g>
      <path class="e" d="M149.13,62.94a.49.49,0,0,1-.45.34h-5.86a.49.49,0,0,1-.45-.34l-5-17.5a2.83,2.83,0,0,1-.1-.71V23a.36.36,0,0,1,.36-.36h16.3a.36.36,0,0,1,.36.36V44.73a2.83,2.83,0,0,1-.1.71Z"/>
      <rect class="e" x="139.71" y="73.28" width="12.09" height="12.54" rx="1.16" ry="1.16"/>
    </g>
  </g>
</svg>
