<svg xmlns="http://www.w3.org/2000/svg" xmlns:xlink="http://www.w3.org/1999/xlink" viewBox="0 0 100 100">
  <defs>
    <style>
      .a {
        fill: none;
      }

      .b {
        clip-path: url(#a);
      }

      .c {
        fill: #1a81b8;
      }

      .d, .e {
        fill: #fff;
      }

      .e {
        font-size: 38.58px;
        font-family: OpenSans-Bold, Open Sans;
        font-weight: 700;
      }
    </style>
    <clipPath id="a">
      <rect class="a" x="12.16" y="10" width="75.68" height="80"/>
    </clipPath>
  </defs>
  <title>UI-elements-forSVG</title>
  <g class="b">
    <g class="b">
      <path class="c" d="M86.14,28.26A15.41,15.41,0,1,1,70.73,12.85,15.41,15.41,0,0,1,86.14,28.26"/>
      <path class="c" d="M78.9,56.26A32.82,32.82,0,1,1,46.08,23.45,32.81,32.81,0,0,1,78.9,56.26"/>
      <path class="d" d="M57.54,46.42A11.59,11.59,0,1,1,46,34.84,11.58,11.58,0,0,1,57.54,46.42"/>
      <path class="d" d="M66.48,72.9c0,7.29-40.79,7.29-40.79,0s9.13-13.19,20.39-13.19,20.4,5.91,20.4,13.19"/>
      <text class="e" transform="translate(60.35 41.84)">+</text>
    </g>
  </g>
</svg>
