<svg xmlns="http://www.w3.org/2000/svg" viewBox="0 0 100 100">
  <defs>
    <style>
      .a {
        fill: #fff;
      }

      .b {
        fill: none;
        stroke: #669dbc;
        stroke-linecap: round;
        stroke-linejoin: round;
        stroke-width: 1.78px;
      }

      .c {
        fill: #669dbc;
      }
    </style>
  </defs>
  <title>UI-elements-forSVG</title>
  <g>
    <rect class="a" x="9.18" y="9.53" width="81.47" height="81.47" rx="3.56" ry="3.56"/>
    <rect class="b" x="9.18" y="9.53" width="81.47" height="81.47" rx="3.56" ry="3.56"/>
  </g>
  <path class="c" d="M60.17,59.59l-2.32-.37-.62-.08a1.76,1.76,0,0,0-1.65.66C53,62.88,41.82,74.35,39.28,77.48a4.22,4.22,0,0,1-7.07-1,4,4,0,0,1,1.09-4.87c3-2.47,14.47-13.51,17.51-16a2.19,2.19,0,0,0,.84-2.39c-.14-.7-.24-1.41-.32-2.12a5.93,5.93,0,0,1,.88-3.94,8.67,8.67,0,0,1,7.13-4.21,1,1,0,0,1,1.12.62,1,1,0,0,1-.32,1.25c-1.13,1.13-2.26,2.27-3.41,3.4-.17.17,4.16,5.67,5.47,6.12a.42.42,0,0,0,.51-.13c1.12-1.14,2.26-2.27,3.4-3.41a1.06,1.06,0,0,1,1.88.82,8.6,8.6,0,0,1-5.12,7.55A6.2,6.2,0,0,1,60.17,59.59Z"/>
</svg>
