<svg xmlns="http://www.w3.org/2000/svg" viewBox="0 0 1200 768">
  <defs>
    <style>
      .a {
        fill: #141414;
      }

      .b, .c {
        fill: #292929;
      }

      .b, .d {
        stroke: #292929;
      }

      .b {
        stroke-miterlimit: 10;
      }

      .d {
        fill: none;
        stroke-linecap: round;
        stroke-linejoin: round;
        stroke-width: 3.06px;
      }

      .e {
        fill: #dddedf;
      }

      .f {
        fill: #fff;
      }

      .g {
        fill: #4caf48;
      }
    </style>
  </defs>
  <title>axcend-screens-v1</title>
  <g>
    <rect class="a" x="-1.26" y="2" width="1202" height="768"/>
    <polygon class="b" points="42 703.94 42 40 326 40 42 703.94"/>
    <g>
      <g>
        <rect class="c" x="870" y="440" width="140" height="140" rx="6.11" ry="6.11"/>
        <rect class="d" x="870" y="440" width="140" height="140" rx="6.11" ry="6.11"/>
      </g>
      <path class="e" d="M943.69,561.48H933.34l23.85-23.85H909.42v-7.37h47.77l-23.85-23.84h10.35L971.22,534Z"/>
      <g>
        <path class="e" d="M898.63,476.57v-20h3.27v17.19h8.46v2.8Z"/>
        <path class="e" d="M931.55,466.55q0,4.88-2.44,7.59a10.24,10.24,0,0,1-13.86,0q-2.43-2.69-2.43-7.64t2.44-7.6a9,9,0,0,1,7-2.65,8.84,8.84,0,0,1,6.89,2.69Q931.55,461.66,931.55,466.55Zm-15.26,0a9,9,0,0,0,1.49,5.6,5.28,5.28,0,0,0,4.42,1.91,5.23,5.23,0,0,0,4.39-1.89,11.33,11.33,0,0,0,0-11.2,5.21,5.21,0,0,0-4.38-1.9,5.33,5.33,0,0,0-4.44,1.9A8.88,8.88,0,0,0,916.29,466.55Z"/>
        <path class="e" d="M944,465.73h7.36v10a21.19,21.19,0,0,1-3.47.83,25.08,25.08,0,0,1-3.59.25,9,9,0,0,1-7-2.69q-2.46-2.69-2.46-7.58a10.12,10.12,0,0,1,2.77-7.56,10.47,10.47,0,0,1,7.65-2.72,14.93,14.93,0,0,1,5.93,1.2l-1.15,2.72a11.47,11.47,0,0,0-4.86-1.12,6.55,6.55,0,0,0-5.06,2,7.78,7.78,0,0,0-1.86,5.5,8.24,8.24,0,0,0,1.67,5.57,6.07,6.07,0,0,0,4.82,1.9,16,16,0,0,0,3.39-.39v-5.16H944Z"/>
        <path class="e" d="M956.17,476.57v-20h3.27v20Z"/>
        <path class="e" d="M981.37,476.57h-4l-9.83-15.93h-.11l.06.89c.13,1.7.2,3.25.2,4.65v10.39h-3v-20h4l9.81,15.85h.08c0-.21-.06-1-.11-2.29s-.08-2.35-.08-3.08V456.58h3Z"/>
      </g>
    </g>
    <g>
      <g>
        <path class="f" d="M629.78,322.66h13.09l34.09,79h-10l-9.45-21.9H613.85l-9.7,21.9h-9.37Zm24.38,49.44L636,329.89l-18.7,42.21Z"/>
        <path class="g" d="M701.43,373,681,345.41h10.53L706.7,366,722,345.41h9.9l-20.32,27.22,21.46,29.05H722.66l-16.3-22-16.42,22H680Z"/>
        <path class="f" d="M773.1,344.78a45.31,45.31,0,0,1,21.25,5.67v8A40.61,40.61,0,0,0,773.2,352c-13.36,0-23,9.06-23,21.57s9.78,21.57,23.13,21.57a40.18,40.18,0,0,0,21.05-6.45v8a45.3,45.3,0,0,1-21.25,5.66c-18.56,0-31.89-12.08-31.89-28.76S754.54,344.78,773.1,344.78Z"/>
        <path class="f" d="M837.91,344.78c16.07,0,27.71,9.81,27.71,23.34v4.07l-2.71,2.39H816.65c.51,11.79,9.73,20.22,22.3,20.22,6.91,0,16-2.3,24.73-7.24v8c-8.41,4.33-17.45,6.78-24.73,6.78-18.13,0-31.26-12.08-31.26-28.76S820.38,344.78,837.91,344.78Zm19.17,23.34c0-9.18-8.05-15.84-19.17-15.84-10.44,0-18.44,6.4-20.65,15.84Z"/>
        <path class="f" d="M883.13,345.41h8.65l.28,3.62a55.87,55.87,0,0,1,20.56-4.25c12.45,0,21.46,7.7,21.46,18.34v38.56h-9V363.12c0-6-5.51-10.84-12.3-10.84a55.26,55.26,0,0,0-20.73,4.6v44.8h-9Z"/>
        <path class="f" d="M997.54,401.68V396a27.6,27.6,0,0,1-17.61,6.34c-16.68,0-30.22-12.88-30.22-28.76,0-16.68,12.69-28.76,30.22-28.76a55.89,55.89,0,0,1,17.61,3.12V325.61h9v76.07Zm0-46.4a57.23,57.23,0,0,0-17.61-3c-12.33,0-21.26,8.93-21.26,21.26a21.26,21.26,0,0,0,21.26,21.26,22.4,22.4,0,0,0,17.61-8Z"/>
      </g>
      <path class="g" d="M737,332.83,780,275l42.63,57.3-.69.85L780,296.23c-14.2,12.51-28.21,24.86-42.23,37.2Z"/>
      <path class="f" d="M853.28,333.5l-42.2-37.16L804,302.12l-6.62-8.86L811,275l43,57.8Z"/>
      <path class="f" d="M742.23,291.69c3.57,4.8,6.82,9.15,10.39,13.93l-4.52,6.24-6-4.53L711.78,334l-.58-.56Z"/>
      <path class="g" d="M879.05,333.86c-10-8.8-20-17.6-30.15-26.54L843,311.89l-4.6-6.21,10.34-14,31,41.7Z"/>
    </g>
  </g>
</svg>
