<svg xmlns="http://www.w3.org/2000/svg" viewBox="0 0 1200 768">
  <defs>
    <style>
      .a {
        fill: #141414;
      }

      .b, .c, .h {
        fill: #292929;
      }

      .b, .d, .f {
        stroke: #292929;
      }

      .b, .h {
        stroke-miterlimit: 10;
      }

      .d, .f, .g {
        fill: none;
        stroke-linecap: round;
        stroke-linejoin: round;
      }

      .d {
        stroke-width: 2.12px;
      }

      .e {
        fill: #dddedf;
      }

      .f {
        stroke-width: 2.12px;
      }

      .g, .h {
        stroke: #dddedf;
      }

      .g {
        stroke-width: 4.3px;
      }

      .h {
        stroke-width: 2.51px;
      }

      .i {
        fill: #fff;
      }

      .j {
        fill: #4caf48;
      }
    </style>
  </defs>
  <title>axcend-screens-v1</title>
  <g>
    <rect class="a" x="-1.26" y="1" width="1202" height="768"/>
    <polygon class="b" points="42 703.94 42 40 326 40 42 703.94"/>
    <g>
      <g>
        <rect class="c" x="784.39" y="468" width="97.15" height="97.15" rx="4.24" ry="4.24"/>
        <rect class="d" x="784.39" y="468" width="97.15" height="97.15" rx="4.24" ry="4.24"/>
      </g>
      <path class="e" d="M835.66,549.64h-.17a2.38,2.38,0,0,1-2.06-1.53l-10.62-28-10.62,28a2.38,2.38,0,0,1-2.23,1.54h-7a2.39,2.39,0,0,1,0-4.77h5.36l12.26-32.31a2.38,2.38,0,0,1,4.46,0l11,29,6.73-12.27a2.39,2.39,0,0,1,4.32.28l5.95,15.29H863a2.39,2.39,0,0,1,0,4.77H851.42a2.38,2.38,0,0,1-2.22-1.52l-4.69-12-6.76,12.33A2.37,2.37,0,0,1,835.66,549.64Z"/>
      <g>
        <path class="e" d="M820.61,486.31a6.91,6.91,0,0,1-1.91,5.25,7.66,7.66,0,0,1-5.49,1.82h-3.88V479.51h4.28a7.11,7.11,0,0,1,5.16,1.78A6.69,6.69,0,0,1,820.61,486.31Zm-2.39.08c0-3.32-1.56-5-4.66-5h-2v10.06h1.62Q818.22,491.47,818.22,486.39Z"/>
        <path class="e" d="M832.19,493.38l-1.38-3.85H825.5l-1.35,3.85h-2.4l5.19-13.93h2.47l5.19,13.93Zm-2-5.81-1.3-3.77c-.1-.26-.23-.65-.4-1.2s-.28-.94-.34-1.19a21.69,21.69,0,0,1-.75,2.55l-1.25,3.61Z"/>
        <path class="e" d="M841.22,493.38H839V481.45h-4.08v-1.94H845.3v1.94h-4.08Z"/>
        <path class="e" d="M856,493.38l-1.38-3.85h-5.31L848,493.38H845.6l5.19-13.93h2.46l5.19,13.93Zm-2-5.81-1.3-3.77c-.09-.26-.23-.65-.39-1.2s-.29-.94-.35-1.19a21.69,21.69,0,0,1-.75,2.55L850,487.57Z"/>
      </g>
    </g>
    <g>
      <g>
        <rect class="c" x="935.35" y="468.35" width="97.15" height="97.15" rx="4.24" ry="4.24"/>
        <rect class="f" x="935.35" y="468.35" width="97.15" height="97.15" rx="4.24" ry="4.24"/>
      </g>
      <path class="e" d="M995.77,529.93l-2.67-.42-.71-.1a2,2,0,0,0-1.91.77c-3,3.55-15.9,16.8-18.83,20.42a4.87,4.87,0,0,1-8.17-1.21,4.66,4.66,0,0,1,1.26-5.63c3.51-2.86,16.71-15.61,20.23-18.46a2.52,2.52,0,0,0,1-2.76c-.16-.8-.28-1.62-.38-2.44a6.86,6.86,0,0,1,1-4.55,10.06,10.06,0,0,1,8.23-4.87,1.18,1.18,0,0,1,1.3.72,1.21,1.21,0,0,1-.37,1.44c-1.31,1.31-2.61,2.63-3.93,3.93-.2.19,4.8,6.55,6.31,7.07a.49.49,0,0,0,.59-.15q1.95-2,3.92-3.93a1.22,1.22,0,0,1,1.47-.38,1.2,1.2,0,0,1,.71,1.31,9.94,9.94,0,0,1-5.92,8.73A7,7,0,0,1,995.77,529.93Z"/>
      <g>
        <path class="e" d="M956.19,490a3.47,3.47,0,0,1-1.34,2.9,5.77,5.77,0,0,1-3.69,1.06,8.9,8.9,0,0,1-3.85-.73V491a10.25,10.25,0,0,0,2,.7,8,8,0,0,0,2,.26,3.16,3.16,0,0,0,2-.51,1.66,1.66,0,0,0,.64-1.38,1.7,1.7,0,0,0-.59-1.32,9.05,9.05,0,0,0-2.42-1.28,6.37,6.37,0,0,1-2.68-1.75,3.71,3.71,0,0,1-.78-2.37,3.32,3.32,0,0,1,1.24-2.74,5.12,5.12,0,0,1,3.31-1,9.7,9.7,0,0,1,4,.87l-.72,1.85a8.62,8.62,0,0,0-3.3-.78,2.54,2.54,0,0,0-1.67.48,1.57,1.57,0,0,0-.57,1.27,1.77,1.77,0,0,0,.23.92,2.28,2.28,0,0,0,.75.73,12,12,0,0,0,1.88.9,10.31,10.31,0,0,1,2.24,1.19,3.46,3.46,0,0,1,1,1.24A3.73,3.73,0,0,1,956.19,490Z"/>
        <path class="e" d="M966.72,493.73h-7.84V479.86h7.84v1.91h-5.58v3.78h5.23v1.9h-5.23v4.35h5.58Z"/>
        <path class="e" d="M972,488.19v5.54h-2.27V479.86h3.92a6.43,6.43,0,0,1,4,1,3.61,3.61,0,0,1,1.29,3,3.8,3.8,0,0,1-2.69,3.69l3.92,6.14h-2.58l-3.32-5.54Zm0-1.88h1.57a3.63,3.63,0,0,0,2.3-.59,2.14,2.14,0,0,0,.71-1.75,1.87,1.87,0,0,0-.77-1.68,4.11,4.11,0,0,0-2.31-.52H972Z"/>
        <path class="e" d="M990,479.86h2.36l-4.86,13.87h-2.39l-4.84-13.87h2.33l2.9,8.62q.23.61.48,1.59c.17.65.28,1.13.33,1.45.08-.48.21-1,.38-1.67s.31-1.1.42-1.41Z"/>
        <path class="e" d="M994.23,493.73V479.86h2.26v13.87Z"/>
        <path class="e" d="M1006.06,481.6A3.73,3.73,0,0,0,1003,483a7.25,7.25,0,0,0,0,7.68,3.82,3.82,0,0,0,3.12,1.31,8.7,8.7,0,0,0,1.71-.17c.55-.12,1.12-.27,1.71-.46v1.95a10.4,10.4,0,0,1-3.7.62,5.89,5.89,0,0,1-4.67-1.85,7.71,7.71,0,0,1-1.64-5.28,8.48,8.48,0,0,1,.8-3.78,5.59,5.59,0,0,1,2.29-2.49,6.88,6.88,0,0,1,3.52-.86,8.64,8.64,0,0,1,3.92.89l-.81,1.89a12.49,12.49,0,0,0-1.49-.59A5.57,5.57,0,0,0,1006.06,481.6Z"/>
        <path class="e" d="M1020.32,493.73h-7.85V479.86h7.85v1.91h-5.58v3.78H1020v1.9h-5.23v4.35h5.58Z"/>
      </g>
    </g>
    <g>
      <g>
        <rect class="c" x="633.44" y="468" width="97.15" height="97.15" rx="4.24" ry="4.24"/>
        <rect class="f" x="633.44" y="468" width="97.15" height="97.15" rx="4.24" ry="4.24"/>
      </g>
      <g>
        <polyline class="g" points="658.52 544.42 670.61 524.3 689.91 537.85 705.93 513.59"/>
        <circle class="h" cx="690.88" cy="537.34" r="4.48"/>
        <circle class="h" cx="705.67" cy="513.96" r="4.48"/>
        <circle class="h" cx="670.64" cy="524.73" r="4.48"/>
        <circle class="h" cx="658.68" cy="544.33" r="4.48"/>
      </g>
      <g>
        <path class="e" d="M666.88,493.38h-2.27V481.45h-4.08v-1.94H671v1.94h-4.08Z"/>
        <path class="e" d="M680.93,493.38h-7.85V479.51h7.85v1.91h-5.58v3.78h5.23v1.9h-5.23v4.35h5.58Z"/>
        <path class="e" d="M691.92,489.61a3.5,3.5,0,0,1-1.33,2.91,5.86,5.86,0,0,1-3.69,1.05,8.8,8.8,0,0,1-3.86-.73v-2.15a10.5,10.5,0,0,0,2,.71,8.53,8.53,0,0,0,2,.25,3.13,3.13,0,0,0,2-.51,1.67,1.67,0,0,0,.65-1.38,1.73,1.73,0,0,0-.59-1.31,8.87,8.87,0,0,0-2.43-1.28,6.48,6.48,0,0,1-2.68-1.76,3.71,3.71,0,0,1-.78-2.37,3.32,3.32,0,0,1,1.24-2.73,5.07,5.07,0,0,1,3.31-1,9.78,9.78,0,0,1,4,.87L691,482a8.62,8.62,0,0,0-3.3-.78,2.54,2.54,0,0,0-1.67.48,1.59,1.59,0,0,0-.57,1.27,1.77,1.77,0,0,0,.23.92,2.28,2.28,0,0,0,.75.73,12,12,0,0,0,1.88.9,10.5,10.5,0,0,1,2.24,1.19,3.46,3.46,0,0,1,1,1.24A3.76,3.76,0,0,1,691.92,489.61Z"/>
        <path class="e" d="M699.4,493.38h-2.27V481.45h-4.08v-1.94h10.43v1.94H699.4Z"/>
      </g>
    </g>
    <g>
      <g>
        <path class="i" d="M629.78,322.66h13.09l34.09,79h-10l-9.45-21.9H613.85l-9.7,21.9h-9.37Zm24.38,49.44L636,329.89l-18.7,42.21Z"/>
        <path class="j" d="M701.43,373,681,345.41h10.53L706.7,366,722,345.41h9.9l-20.32,27.22,21.46,29.05H722.66l-16.3-22-16.42,22H680Z"/>
        <path class="i" d="M773.1,344.78a45.31,45.31,0,0,1,21.25,5.67v8A40.61,40.61,0,0,0,773.2,352c-13.36,0-23,9.06-23,21.57s9.78,21.57,23.13,21.57a40.18,40.18,0,0,0,21.05-6.45v8a45.3,45.3,0,0,1-21.25,5.66c-18.56,0-31.89-12.08-31.89-28.76S754.54,344.78,773.1,344.78Z"/>
        <path class="i" d="M837.91,344.78c16.07,0,27.71,9.81,27.71,23.34v4.07l-2.71,2.39H816.65c.51,11.79,9.73,20.22,22.3,20.22,6.91,0,16-2.3,24.73-7.24v8c-8.41,4.33-17.45,6.78-24.73,6.78-18.13,0-31.26-12.08-31.26-28.76S820.38,344.78,837.91,344.78Zm19.17,23.34c0-9.18-8.05-15.84-19.17-15.84-10.44,0-18.44,6.4-20.65,15.84Z"/>
        <path class="i" d="M883.13,345.41h8.65l.28,3.62a55.87,55.87,0,0,1,20.56-4.25c12.45,0,21.46,7.7,21.46,18.34v38.56h-9V363.12c0-6-5.51-10.84-12.3-10.84a55.26,55.26,0,0,0-20.73,4.6v44.8h-9Z"/>
        <path class="i" d="M997.54,401.68V396a27.6,27.6,0,0,1-17.61,6.34c-16.68,0-30.22-12.88-30.22-28.76,0-16.68,12.69-28.76,30.22-28.76a55.89,55.89,0,0,1,17.61,3.12V325.61h9v76.07Zm0-46.4a57.23,57.23,0,0,0-17.61-3c-12.33,0-21.26,8.93-21.26,21.26a21.26,21.26,0,0,0,21.26,21.26,22.4,22.4,0,0,0,17.61-8Z"/>
      </g>
      <path class="j" d="M737,332.83,780,275l42.63,57.3-.69.85L780,296.23c-14.2,12.51-28.21,24.86-42.23,37.2Z"/>
      <path class="i" d="M853.28,333.5l-42.2-37.16L804,302.12l-6.62-8.86L811,275l43,57.8Z"/>
      <path class="i" d="M742.23,291.69c3.57,4.8,6.82,9.15,10.39,13.93l-4.52,6.24-6-4.53L711.78,334l-.58-.56Z"/>
      <path class="j" d="M879.05,333.86c-10-8.8-20-17.6-30.15-26.54L843,311.89l-4.6-6.21,10.34-14,31,41.7Z"/>
    </g>
  </g>
</svg>
