<?xml version="1.0" encoding="UTF-8" standalone="no"?>
<!-- Created with Inkscape (http://www.inkscape.org/) -->

<svg
   xmlns:dc="http://purl.org/dc/elements/1.1/"
   xmlns:cc="http://creativecommons.org/ns#"
   xmlns:rdf="http://www.w3.org/1999/02/22-rdf-syntax-ns#"
   xmlns:svg="http://www.w3.org/2000/svg"
   xmlns="http://www.w3.org/2000/svg"
   xmlns:sodipodi="http://sodipodi.sourceforge.net/DTD/sodipodi-0.dtd"
   xmlns:inkscape="http://www.inkscape.org/namespaces/inkscape"
   width="32"
   height="32"
   viewBox="0 0 32 32"
   id="svg4207"
   version="1.1"
   inkscape:version="0.91 r13725"
   sodipodi:docname="icon_add.svg">
  <defs
     id="defs4209" />
  <sodipodi:namedview
     id="base"
     pagecolor="#ffffff"
     bordercolor="#666666"
     borderopacity="1.0"
     inkscape:pageopacity="0.0"
     inkscape:pageshadow="2"
     inkscape:zoom="22.4"
     inkscape:cx="13.804641"
     inkscape:cy="15.086847"
     inkscape:document-units="px"
     inkscape:current-layer="layer1"
     showgrid="false"
     inkscape:window-width="1724"
     inkscape:window-height="1713"
     inkscape:window-x="2025"
     inkscape:window-y="168"
     inkscape:window-maximized="0" />
  <metadata
     id="metadata4212">
    <rdf:RDF>
      <cc:Work
         rdf:about="">
        <dc:format>image/svg+xml</dc:format>
        <dc:type
           rdf:resource="http://purl.org/dc/dcmitype/StillImage" />
      </cc:Work>
    </rdf:RDF>
  </metadata>
  <g
     inkscape:label="Layer 1"
     inkscape:groupmode="layer"
     id="layer1">
    <path
       inkscape:connector-curvature="0"
       id="path5"
       d="M 16.000002,-6.325e-7 C 7.1774881,-6.325e-7 1.8001176e-6,7.1774857 1.8001176e-6,16 1.8001176e-6,24.822514 7.1774881,32 16.000002,32 c 8.822514,0 16,-7.177486 16,-16 0,-8.8225143 -7.177486,-16.0000006325 -16,-16.0000006325 z m 0,28.2601686325 C 9.2396317,28.260168 3.7398342,22.760121 3.7398342,16 c 0,-6.7601214 5.4997975,-12.2601682 12.2601678,-12.2601682 6.76037,0 12.260168,5.4997975 12.260168,12.2601682 0,6.76037 -5.499798,12.260168 -12.260168,12.260168 z"
       style="fill:#000002" />
    <path
       inkscape:connector-curvature="0"
       id="path13"
       d="m 21.925393,14.379406 -4.304797,0 0,-4.304797 c 0,-0.8950663 -0.725527,-1.6205938 -1.620594,-1.6205938 -0.895066,0 -1.620594,0.7255275 -1.620594,1.6205938 l 0,4.304797 -4.304796,0 c -0.8950669,0 -1.6205944,0.725527 -1.6205944,1.620594 0,0.895066 0.7255275,1.620594 1.6205944,1.620594 l 4.304796,0 0,4.305295 c 0,0.894817 0.725528,1.620594 1.620594,1.620594 0.895067,0 1.620594,-0.725777 1.620594,-1.620594 l 0,-4.305295 4.304797,0 c 0.895066,0 1.620594,-0.725528 1.620594,-1.620594 0,-0.895067 -0.725528,-1.620594 -1.620594,-1.620594 z"
       style="fill:#008000;fill-opacity:1" />
  </g>
</svg>
