<?xml version="1.0" encoding="UTF-8" standalone="no"?>
<!-- Created with Inkscape (http://www.inkscape.org/) -->

<svg
   xmlns:dc="http://purl.org/dc/elements/1.1/"
   xmlns:cc="http://creativecommons.org/ns#"
   xmlns:rdf="http://www.w3.org/1999/02/22-rdf-syntax-ns#"
   xmlns:svg="http://www.w3.org/2000/svg"
   xmlns="http://www.w3.org/2000/svg"
   xmlns:sodipodi="http://sodipodi.sourceforge.net/DTD/sodipodi-0.dtd"
   xmlns:inkscape="http://www.inkscape.org/namespaces/inkscape"
   width="32"
   height="32"
   viewBox="0 0 32 32"
   id="svg4830"
   version="1.1"
   inkscape:version="0.91 r13725"
   sodipodi:docname="icon_rem.svg">
  <defs
     id="defs4832" />
  <sodipodi:namedview
     id="base"
     pagecolor="#ffffff"
     bordercolor="#666666"
     borderopacity="1.0"
     inkscape:pageopacity="0.0"
     inkscape:pageshadow="2"
     inkscape:zoom="11.2"
     inkscape:cx="11.117011"
     inkscape:cy="-24.574953"
     inkscape:document-units="px"
     inkscape:current-layer="layer1"
     showgrid="false"
     inkscape:window-width="2315"
     inkscape:window-height="1981"
     inkscape:window-x="1501"
     inkscape:window-y="67"
     inkscape:window-maximized="0" />
  <metadata
     id="metadata4835">
    <rdf:RDF>
      <cc:Work
         rdf:about="">
        <dc:format>image/svg+xml</dc:format>
        <dc:type
           rdf:resource="http://purl.org/dc/dcmitype/StillImage" />
        <dc:title></dc:title>
      </cc:Work>
    </rdf:RDF>
  </metadata>
  <g
     inkscape:label="Layer 1"
     inkscape:groupmode="layer"
     id="layer1">
    <path
       inkscape:connector-curvature="0"
       id="path9"
       d="M 16.000001,-3.74233e-6 C 7.1774871,-3.74233e-6 7.4604879e-7,7.1775384 7.4604879e-7,15.999872 7.4604879e-7,24.822454 7.1774871,31.999997 16.000001,31.999997 c 8.822514,0 16,-7.177543 16,-16.000125 0,-8.8223336 -7.177486,-15.99987574233 -16,-15.99987574233 z m 0,28.26013874233 c -6.7603703,0 -12.2601679,-5.50009 -12.2601679,-12.260263 0,-6.7601739 5.4997976,-12.2600142 12.2601679,-12.2600142 6.76037,0 12.260168,5.4998403 12.260168,12.2600142 0,6.760423 -5.499798,12.260263 -12.260168,12.260263 z"
       style="fill:#000000;fill-opacity:1" />
    <path
       inkscape:connector-curvature="0"
       id="path15"
       d="m 21.335994,10.663837 c -0.63278,-0.632535 -1.65899,-0.632784 -2.291769,2.5e-4 l -3.043975,3.043998 -3.043974,-3.043998 c -0.633029,-0.633034 -1.65899,-0.632785 -2.291769,-2.5e-4 -0.633029,0.633034 -0.633029,1.659003 0,2.291787 l 3.043974,3.044248 -3.043974,3.044247 c -0.633029,0.632785 -0.633029,1.658753 0,2.291787 0.31639,0.316392 0.731262,0.474464 1.145884,0.474464 0.414873,0 0.829495,-0.158321 1.145885,-0.474713 l 3.043974,-3.043998 3.043975,3.043998 c 0.316639,0.316641 0.731262,0.474713 1.145884,0.474713 0.414623,0 0.829495,-0.158321 1.145885,-0.474464 0.633029,-0.633034 0.633029,-1.659002 0,-2.291787 l -3.044224,-3.044247 3.044224,-3.044248 c 0.63278,-0.632784 0.63278,-1.658753 0,-2.291787 z"
       style="fill:#800000;fill-opacity:1" />
  </g>
</svg>
